<svg width="855" height="804" viewBox="0 0 855 804" fill="none" xmlns="http://www.w3.org/2000/svg">
<g clip-path="url(#clip0)">
<path d="M392.704 623.01L375.762 639.316C348.021 645.356 317.762 637.98 296.166 617.196C291.761 612.957 287.929 608.365 284.685 603.518C272.022 584.62 268.19 561.843 273.182 540.592L290.124 524.286L392.704 623.01Z" fill="#97A3B7"/>
<path d="M392.704 623.01L375.762 639.316C348.021 645.356 317.762 637.98 296.166 617.196C291.761 612.957 287.929 608.365 284.685 603.518C304.321 615.705 327.988 619.393 350.069 614.589L367.011 598.283L392.704 623.01Z" fill="#6C708C"/>
<path d="M645.594 380.786L541.81 280.903C581.78 244.555 608.596 223.65 608.596 223.65C608.596 223.65 631.991 238.154 661.002 266.074C671.844 276.509 680.741 286.188 687.62 294.22C699.167 307.679 705.083 316.51 705.083 316.51C705.083 316.51 683.362 342.318 645.594 380.786V380.786Z" fill="#D9E2F4"/>
<path d="M705.083 316.51C705.083 316.51 683.362 342.318 645.594 380.785L624.871 360.841C658.139 327.015 680.176 302.599 687.62 294.22C699.167 307.679 705.083 316.51 705.083 316.51V316.51Z" fill="#BAC7DB"/>
<path d="M547.044 544.301C511.955 578.071 480.757 605.468 456.899 625.518C426.942 650.676 408.56 664.24 408.56 664.24C408.56 664.24 399.355 657.995 384.196 646.062C368.671 633.833 346.883 615.62 322.343 592.002C273.85 545.332 247.284 509.026 247.284 509.026C247.284 509.026 261.326 491.399 287.379 462.667C308.212 439.678 336.738 409.596 371.908 375.748C451.027 299.604 509.665 256.508 509.665 256.508C509.665 256.508 547.389 282.076 595.882 328.746C620.422 352.364 639.347 373.332 652.054 388.274C664.452 402.863 670.941 411.722 670.941 411.722C670.941 411.722 626.163 468.156 547.044 544.301V544.301Z" fill="#83F2D3"/>
<path d="M670.942 411.723C670.942 411.723 626.163 468.156 547.044 544.301C511.955 578.071 480.757 605.468 456.899 625.518C426.942 650.676 408.56 664.24 408.56 664.24C408.56 664.24 399.355 657.995 384.196 646.063C398.782 634.851 454.235 591.233 525.044 523.085C595.772 455.016 640.514 402.22 652.054 388.274C664.452 402.863 670.942 411.723 670.942 411.723V411.723Z" fill="#25BFB7"/>
<path d="M456.899 625.518C426.942 650.676 408.56 664.24 408.56 664.24C408.56 664.24 399.355 657.995 384.196 646.063C368.67 633.833 346.883 615.62 322.343 592.003C273.85 545.332 247.284 509.026 247.284 509.026C247.284 509.026 261.326 491.4 287.379 462.667L287.548 462.999C287.548 462.999 315.619 500.753 366.388 549.614C392.638 574.877 415.806 594.306 432.065 607.171C447.239 619.188 456.385 625.49 456.385 625.49L456.899 625.518Z" fill="#525D72"/>
<path d="M456.385 625.49L456.899 625.518C426.942 650.676 408.56 664.24 408.56 664.24C408.56 664.24 399.355 657.995 384.196 646.062C391.339 640.573 408.296 627.291 432.065 607.171C447.239 619.188 456.385 625.49 456.385 625.49Z" fill="#313B4C"/>
<path d="M434.355 398.063C440.436 403.915 450.303 403.909 456.393 398.048C462.483 392.187 462.49 382.691 456.408 376.838C450.327 370.986 440.46 370.992 434.371 376.853C428.281 382.714 428.274 392.21 434.355 398.063Z" fill="white"/>
<path d="M529.641 392.497C535.723 398.35 545.589 398.343 551.679 392.482C557.769 386.621 557.776 377.126 551.694 371.273C545.613 365.42 535.746 365.427 529.657 371.288C523.567 377.149 523.56 386.644 529.641 392.497Z" fill="white"/>
<path d="M538.974 465.959C545.056 471.811 554.922 471.805 561.012 465.944C567.102 460.083 567.109 450.587 561.027 444.734C554.946 438.882 545.079 438.888 538.99 444.749C532.9 450.61 532.893 460.106 538.974 465.959Z" fill="white"/>
<path d="M552.552 538.997C549.51 536.07 544.581 536.071 541.541 538.997C508.862 570.447 479.441 596.448 456.262 616.062C449.965 611.474 437.654 602.231 421.578 588.85C418.327 586.143 413.41 586.486 410.597 589.616C407.767 592.743 408.169 597.526 411.392 600.185C425.916 612.276 437.314 620.978 444.266 626.113C427.197 640.27 414.692 650.015 408.402 654.828C396.949 646.572 365.549 622.984 327.85 586.702C290.152 550.421 265.641 520.2 257.062 509.178C262.064 503.124 272.188 491.093 286.895 474.668C296.165 487.787 349.09 546.183 382.835 575.391C390.591 581.935 400.769 571.503 393.499 564.469C359.525 535.294 304.089 473.363 297.345 463.115C338.518 417.362 408.287 349.506 460.748 305.637C463.974 302.901 464.286 298.166 461.442 295.061C458.604 291.958 453.68 291.658 450.453 294.392C422.45 318.137 394.173 343.725 366.407 370.448C287.835 446.066 241.564 503.89 241.106 504.465C239.035 507.065 238.959 510.659 240.918 513.338C241.519 514.158 249.655 525.212 264.791 542.657C252.205 603.357 310.557 659.499 373.613 647.388C391.74 661.955 403.225 669.786 404.078 670.364C406.861 672.249 410.596 672.177 413.297 670.184C413.895 669.743 473.978 625.212 552.55 549.593C555.592 546.668 555.593 541.924 552.552 538.997V538.997ZM301.673 611.897C286.684 597.471 278.654 578.255 278.823 558.383C299.027 580.845 333.936 614.442 357.276 633.887C336.628 634.049 316.661 626.322 301.673 611.897Z" fill="black"/>
<path d="M475.81 283.145C478.572 286.315 483.489 286.722 486.78 284.058C497.312 275.537 505.217 269.414 509.814 265.912C521.257 274.162 552.666 297.753 590.376 334.046C628.084 370.336 652.595 400.561 661.169 411.578C650.71 424.274 617.715 463.321 566.776 514.244C563.789 517.223 563.896 521.985 566.986 524.84C570.084 527.711 575.013 527.62 577.995 524.639C640.846 461.806 676.771 416.721 677.126 416.273C679.189 413.673 679.261 410.085 677.305 407.411C676.739 406.637 669.49 396.789 656.006 381.074C690.654 345.496 710.925 321.472 711.134 321.223C713.25 318.708 713.45 315.17 711.629 312.45C711.472 312.215 707.701 306.602 700.393 297.561C697.751 294.304 692.862 293.707 689.466 296.248C686.072 298.788 685.461 303.496 688.102 306.764C691.188 310.582 693.606 313.754 695.335 316.091C688.202 324.3 670.996 343.711 645.896 369.538C623.884 344.177 579.85 301.799 553.499 280.614C580.306 256.484 600.49 239.911 609.029 233.038C616.666 237.746 646.291 261.105 663.382 279.168C666.333 282.18 671.269 282.301 674.389 279.453C677.511 276.607 677.643 271.865 674.685 268.86C672.023 266.154 669.272 263.435 666.509 260.775C637.244 232.61 613.799 217.961 612.816 217.351C609.989 215.599 606.313 215.791 603.7 217.827C603.441 218.028 578.479 237.537 541.513 270.883C525.182 257.905 514.95 250.929 514.146 250.384C511.367 248.5 507.639 248.57 504.938 250.556C504.514 250.868 494.368 258.341 476.76 272.587C473.469 275.25 473.043 279.976 475.81 283.145V283.145Z" fill="black"/>
<path d="M614.14 271.613L599.458 285.742C592.421 293.001 602.936 303.11 610.47 296.34L625.151 282.21C632.189 274.951 621.674 264.842 614.14 271.613Z" fill="black"/>
<path d="M644.237 300.579L629.556 314.708C622.518 321.967 633.033 332.076 640.567 325.305L655.248 311.176C662.286 303.917 651.772 293.808 644.237 300.579Z" fill="black"/>
<path d="M401.004 516.3C404.045 519.227 408.974 519.226 412.015 516.3L454.767 475.155C483.04 483.923 507.153 495.911 507.405 496.038C509.969 497.32 513.061 497.129 515.435 495.545C525.853 488.585 534.82 480.604 539.999 475.682C563.616 486.027 584.77 457.656 566.534 439.435C547.523 421.827 517.994 442.379 528.942 465.116C524.82 469.021 518.08 475.05 510.267 480.659C502.802 477.147 486.474 469.825 467.066 463.318L530.587 402.185C554.211 412.631 575.467 384.233 557.201 365.975C538.225 348.393 508.72 368.858 519.575 391.588L429.542 478.237C422.69 459.308 414.967 443.422 411.378 436.373C419.629 424.159 429.68 413.43 435.325 407.762C458.947 418.178 480.173 389.788 461.915 371.54C442.934 353.955 413.426 374.432 424.294 397.163C417.655 403.795 405.316 416.973 395.797 432.071C394.386 434.308 394.291 437.091 395.544 439.413C395.675 439.657 408.132 462.864 417.243 490.074L401.004 505.703C397.963 508.629 397.962 513.373 401.004 516.3V516.3ZM555.523 450.033C558.559 452.955 558.552 457.715 555.508 460.645C547.942 467.428 537.449 457.326 544.497 450.047C547.541 447.118 552.487 447.111 555.523 450.033ZM450.904 382.137C453.94 385.059 453.933 389.819 450.889 392.749C443.323 399.533 432.83 389.431 439.877 382.152C442.922 379.222 447.868 379.215 450.904 382.137ZM546.19 376.571C549.226 379.493 549.219 384.253 546.175 387.183C538.609 393.967 528.116 383.865 535.164 376.586C538.208 373.656 543.154 373.649 546.19 376.571Z" fill="black"/>
</g>
<path d="M80.0007 482.434L26.0482 430.51L75.8794 382.552L87.5691 393.802L49.5026 430.437L58.9443 439.524L89.5923 410.028L101.282 421.279L70.634 450.775L91.7654 471.112L80.0007 482.434ZM134.077 430.39L80.0499 378.394L91.6647 367.216L134.002 407.962L176.34 367.216L188.03 378.466L134.077 430.39ZM192.548 374.117L149.686 332.866C146.639 329.934 145.115 326.4 145.115 322.265C145.115 318.034 146.639 314.452 149.686 311.52L181.383 281.014C184.43 278.081 188.152 276.615 192.548 276.615C196.894 276.567 200.591 278.009 203.638 280.942L246.501 322.193L234.736 333.515L217.351 316.784L186.778 346.208L204.163 362.939L192.548 374.117ZM175.089 334.958L205.662 305.534L194.946 295.221C193.298 293.635 192.473 292.841 192.473 292.841C192.473 292.841 191.649 293.635 190 295.221L164.373 319.885C162.724 321.472 161.9 322.265 161.9 322.265C161.9 322.265 162.724 323.058 164.373 324.645L175.089 334.958ZM265.979 303.447C262.932 306.38 259.235 307.87 254.889 307.918C250.542 307.87 246.846 306.38 243.798 303.447L238.778 298.615L250.393 287.437L252.341 289.312C253.989 290.899 254.814 291.692 254.814 291.692C254.814 291.692 255.638 290.899 257.287 289.312L282.914 264.648C284.563 263.061 285.387 262.268 285.387 262.268C285.387 262.268 284.563 261.475 282.914 259.888L278.418 255.561C276.769 253.975 275.945 253.181 275.945 253.181C275.945 253.181 275.121 253.975 273.472 255.561L244.847 283.11C241.8 286.043 238.103 287.533 233.757 287.581C229.411 287.533 225.714 286.043 222.667 283.11L212.026 272.869C208.979 269.937 207.455 266.403 207.455 262.268C207.455 258.037 208.979 254.455 212.026 251.523L243.798 220.945C246.796 218.06 250.492 216.618 254.889 216.618C259.235 216.57 262.932 218.012 265.979 220.945L270.999 225.777L259.235 237.099L257.287 235.224C255.638 233.638 254.814 232.844 254.814 232.844C254.814 232.844 253.989 233.638 252.341 235.224L226.713 259.888C225.065 261.475 224.241 262.268 224.241 262.268C224.241 262.268 225.065 263.061 226.713 264.648L231.209 268.975C232.858 270.562 233.682 271.355 233.682 271.355C233.682 271.355 234.507 270.562 236.155 268.975L264.93 241.282C267.927 238.397 271.624 236.955 276.02 236.955C280.366 236.907 284.063 238.349 287.11 241.282L297.751 251.523C300.798 254.455 302.322 258.037 302.322 262.268C302.272 266.451 300.748 269.985 297.751 272.869L265.979 303.447ZM317.168 254.182L263.216 202.258L274.83 191.079L295.962 211.416L327.809 180.767L306.677 160.43L318.292 149.251L372.245 201.176L360.63 212.354L339.499 192.017L307.652 222.667L328.783 243.004L317.168 254.182ZM380.906 192.84L326.954 140.916L338.643 129.665L359.775 150.003L370.34 139.834L366.893 102.477L379.033 90.7943L383.079 94.6886L386.751 135.291L428.939 138.824L432.985 142.719L420.846 154.402L382.03 151.084L371.464 161.253L392.596 181.59L380.906 192.84ZM438.938 136.99L396.075 95.7388C393.028 92.8061 391.505 89.2723 391.505 85.1376C391.505 80.9067 393.028 77.3249 396.075 74.3921L427.773 43.8866C430.82 40.9538 434.542 39.4874 438.938 39.4874C443.284 39.4394 446.981 40.8817 450.028 43.8145L492.89 85.0655L481.126 96.3879L463.741 79.6567L433.168 109.081L450.553 125.812L438.938 136.99ZM421.478 97.8302L452.051 68.4064L441.336 58.0937C439.687 56.5071 438.863 55.7138 438.863 55.7138C438.863 55.7138 438.039 56.5071 436.39 58.0937L410.763 82.7577C409.114 84.3443 408.29 85.1376 408.29 85.1376C408.29 85.1376 409.114 85.9309 410.763 87.5175L421.478 97.8302Z" fill="black"/>
<defs>
<clipPath id="clip0">
<rect width="521.391" height="521.391" fill="white" transform="matrix(0.72052 0.693434 -0.72052 0.693434 478.673 80)"/>
</clipPath>
</defs>
</svg>
