<svg id="Layer_1" enable-background="new 0 0 511.762 511.762" height="512" viewBox="0 0 511.762 511.762" width="512" xmlns="http://www.w3.org/2000/svg"><g><g><path d="m325.75 442.861v23.08c-14.62 23.17-40.45 38.56-69.87 38.56-6 0-11.86-.64-17.5-1.86-22-4.75-40.73-18.26-52.37-36.7v-23.08z" fill="#97a3b7"/><path d="m325.75 442.861v23.08c-14.62 23.17-40.45 38.56-69.87 38.56-6 0-11.86-.64-17.5-1.86 22-4.75 40.73-18.26 52.37-36.7v-23.08z" fill="#6c708c"/><g><path d="m326.57 99.181h-141.38c1.5-52.95 4.97-86.01 4.97-86.01s26.2-5.67 65.72-5.67c14.77 0 27.68.79 38.05 1.79 17.39 1.66 27.67 3.88 27.67 3.88s3.47 33.06 4.97 86.01z" fill="#d9e2f4"/><path d="m321.6 13.171s3.47 33.06 4.97 86.01h-28.23c-1.28-46.6-3.55-78.89-4.41-89.89 17.39 1.66 27.67 3.88 27.67 3.88z" fill="#bac7db"/></g><path d="m375.17 282.031c0 47.8-1.86 88.44-3.92 118.88-2.6 38.21-5.52 60.33-5.52 60.33s-10.69 1.85-29.46 3.73c-19.23 1.92-46.96 3.87-80.39 3.87-66.06 0-109.85-7.6-109.85-7.6s-2.91-22.04-5.5-60.12c-2.08-30.46-3.94-71.18-3.94-119.09 0-107.78 9.44-178.22 9.44-178.22s43.79-7.6 109.85-7.6c33.43 0 61.16 1.95 80.39 3.87 18.77 1.88 29.46 3.73 29.46 3.73s9.44 70.44 9.44 178.22z" fill="#83f2d3"/><path d="m365.73 103.811s9.44 70.44 9.44 178.22c0 47.8-1.86 88.44-3.92 118.88-2.6 38.21-5.52 60.33-5.52 60.33s-10.69 1.85-29.46 3.73c2-17.87 8.9-86.51 8.9-182.97 0-96.35-6.89-164.19-8.9-181.92 18.77 1.88 29.46 3.73 29.46 3.73z" fill="#25bfb7"/><path d="m371.25 400.911c-2.6 38.21-5.52 60.33-5.52 60.33s-10.69 1.85-29.46 3.73c-19.23 1.92-46.96 3.87-80.39 3.87-66.06 0-109.85-7.6-109.85-7.6s-2.91-22.04-5.5-60.12l.35.12s45.84 7.6 115 7.6c35.76 0 65.29-2.03 85.47-4 18.84-1.83 29.53-3.6 29.53-3.6z" fill="#525d72"/><path d="m370.88 401.241.37-.33c-2.6 38.21-5.52 60.33-5.52 60.33s-10.69 1.85-29.46 3.73c.98-8.75 3.13-29.7 5.08-60.13 18.84-1.83 29.53-3.6 29.53-3.6z" fill="#313b4c"/><g fill="#fff"><ellipse cx="194.917" cy="240.268" rx="15" ry="15.021"/><ellipse cx="255.88" cy="171.427" rx="15" ry="15.021"/><ellipse cx="314.228" cy="217.061" rx="15" ry="15.021"/></g></g><g><path d="m375.168 274.526c-4.143 0-7.5 3.358-7.5 7.5 0 44.516-1.638 82.958-3.544 112.627-7.536 1.042-22.463 2.886-42.883 4.365-4.131.299-7.237 3.891-6.938 8.022.286 4.141 3.945 7.252 8.022 6.939 18.45-1.336 32.372-2.941 40.741-4.042-1.606 21.646-3.227 37.06-4.105 44.751-13.644 1.958-51.726 6.651-103.081 6.651s-89.438-4.694-103.082-6.651c-.878-7.691-2.497-23.102-4.104-44.744 15.599 2.971 92.976 8.251 136.633 5.938 9.914-.651 9.463-14.967-.467-14.993-43.789 2.492-125.378-3.58-137.224-6.239-4.337-60.425-4.84-155.97-.154-222.75.261-4.134-2.878-7.697-7.012-7.958-4.13-.263-7.696 2.878-7.959 7.012-2.269 35.878-3.419 73.248-3.419 111.073 0 107.035 9.407 179.475 9.502 180.194.43 3.251 2.922 5.846 6.152 6.407.99.172 14.355 2.453 37.011 4.49 34.386 51.532 113.865 51.521 148.243 0 22.656-2.037 36.021-4.318 37.011-4.49 3.23-.561 5.723-3.156 6.152-6.407.095-.719 9.503-73.159 9.503-180.194.002-4.143-3.355-7.501-7.498-7.501zm-119.287 222.474c-20.419 0-39.488-8.131-53.437-22.31 29.659 2.136 77.214 2.136 106.873 0-13.949 14.179-33.018 22.31-53.436 22.31z"/><path d="m141.822 145.722c4.125.362 7.762-2.699 8.118-6.826 1.143-13.204 2.194-22.922 2.847-28.531 13.633-1.956 51.723-6.653 103.094-6.653 51.367 0 89.454 4.696 103.09 6.653 1.862 16.109 7.023 66.218 8.367 136.954.074 4.143 3.517 7.44 7.642 7.356 4.142-.079 7.435-3.5 7.356-7.641-1.659-87.279-9.098-143.656-9.173-144.215-.435-3.245-2.925-5.833-6.15-6.394-.933-.162-12.84-2.194-33.147-4.132-1.58-48.779-4.775-79.589-4.809-79.908-.339-3.221-2.707-5.861-5.872-6.546-.273-.059-6.814-1.463-18.19-2.884-4.105-.506-7.857 2.402-8.372 6.513-.514 4.11 2.402 7.858 6.513 8.372 4.804.6 8.696 1.198 11.528 1.674.951 10.669 2.969 36.126 4.152 71.501-32.942-2.956-92.927-2.956-125.869 0 1.182-35.337 3.2-60.814 4.152-71.495 8.534-1.869 45.244-5.516 69.669-4.373 4.142.122 7.589-3.155 7.699-7.295.112-4.141-3.154-7.587-7.295-7.699-3.729-.102-7.527-.153-11.291-.153-39.867 0-66.203 5.601-67.305 5.839-3.165.685-5.533 3.325-5.872 6.546-.034.319-3.229 31.128-4.808 79.907-20.308 1.938-32.215 3.97-33.148 4.132-3.226.56-5.716 3.148-6.15 6.394-.068.509-1.69 12.709-3.601 34.785-.357 4.126 2.698 7.761 6.825 8.119z"/><path d="m227.881 43.34v20c.344 9.931 14.66 9.923 15 0v-20c-.344-9.931-14.66-9.924-15 0z"/><path d="m268.881 43.34v20c.344 9.931 14.66 9.923 15 0v-20c-.344-9.931-14.66-9.924-15 0z"/><path d="m255.881 361.686c4.143 0 7.5-3.358 7.5-7.5v-58.239c25.463-13.052 50.371-20.992 50.633-21.074 2.653-.839 4.625-3.08 5.12-5.818 2.171-12.022 2.63-23.778 2.674-30.789 23.408-8.765 17.737-43.252-7.58-43.727-25.41.487-30.978 35.146-7.429 43.78-.044 5.571-.368 14.429-1.72 23.72-7.57 2.6-23.874 8.539-41.698 17.153v-86.531c23.484-8.698 17.864-43.275-7.5-43.755-25.368.482-30.981 35.062-7.5 43.755v122.648c-18.064-8.729-34.567-14.712-42-17.256-3.025-14.264-3.772-28.704-3.939-36.56 23.462-8.718 17.827-43.268-7.524-43.747-25.374.483-30.98 35.074-7.49 43.759.172 9.216 1.094 26.947 5.295 44.116.622 2.544 2.527 4.579 5.024 5.369.262.083 25.171 8.022 50.634 21.074v22.122c0 4.142 3.357 7.5 7.5 7.5zm58.348-152.147c4.136 0 7.5 3.374 7.5 7.521-.352 9.954-14.649 9.952-15 0 0-4.147 3.364-7.521 7.5-7.521zm-119.311 23.207c4.136 0 7.5 3.374 7.5 7.521-.352 9.954-14.649 9.952-15 0 0-4.147 3.364-7.521 7.5-7.521zm60.963-68.841c4.136 0 7.5 3.374 7.5 7.521-.352 9.954-14.649 9.952-15 0 0-4.147 3.364-7.521 7.5-7.521z"/></g></g></svg>